<mxfile host="Electron" modified="2023-07-12T10:05:24.262Z" agent="Mozilla/5.0 (X11; Linux x86_64) AppleWebKit/537.36 (KHTML, like Gecko) draw.io/21.6.1 Chrome/112.0.5615.204 Electron/24.6.1 Safari/537.36" etag="fFdvTLdtf8-_p1108cgZ" version="21.6.1" type="device">
  <diagram name="Page-1" id="DFf4Y73oTzaVlA88qBUK">
    <mxGraphModel dx="2284" dy="870" grid="1" gridSize="10" guides="1" tooltips="1" connect="1" arrows="1" fold="1" page="1" pageScale="1" pageWidth="850" pageHeight="1100" math="0" shadow="0">
      <root>
        <mxCell id="0" />
        <mxCell id="1" parent="0" />
        <mxCell id="4vnQMyWu1_nB3eLrfGSI-23" value="" style="rounded=0;whiteSpace=wrap;html=1;fillColor=#ffe6cc;strokeColor=#d79b00;" vertex="1" parent="1">
          <mxGeometry x="-60" y="400" width="180" height="330" as="geometry" />
        </mxCell>
        <mxCell id="4vnQMyWu1_nB3eLrfGSI-3" value="" style="edgeStyle=orthogonalEdgeStyle;rounded=0;orthogonalLoop=1;jettySize=auto;html=1;" edge="1" parent="1" source="4vnQMyWu1_nB3eLrfGSI-1" target="4vnQMyWu1_nB3eLrfGSI-2">
          <mxGeometry relative="1" as="geometry" />
        </mxCell>
        <mxCell id="4vnQMyWu1_nB3eLrfGSI-1" value="MGnify" style="rounded=0;whiteSpace=wrap;html=1;" vertex="1" parent="1">
          <mxGeometry x="190" y="120" width="120" height="60" as="geometry" />
        </mxCell>
        <mxCell id="4vnQMyWu1_nB3eLrfGSI-5" value="" style="edgeStyle=orthogonalEdgeStyle;rounded=0;orthogonalLoop=1;jettySize=auto;html=1;" edge="1" parent="1" source="4vnQMyWu1_nB3eLrfGSI-2" target="4vnQMyWu1_nB3eLrfGSI-4">
          <mxGeometry relative="1" as="geometry" />
        </mxCell>
        <mxCell id="4vnQMyWu1_nB3eLrfGSI-13" value="" style="edgeStyle=orthogonalEdgeStyle;rounded=0;orthogonalLoop=1;jettySize=auto;html=1;" edge="1" parent="1" source="4vnQMyWu1_nB3eLrfGSI-2" target="4vnQMyWu1_nB3eLrfGSI-12">
          <mxGeometry relative="1" as="geometry" />
        </mxCell>
        <mxCell id="4vnQMyWu1_nB3eLrfGSI-30" style="edgeStyle=orthogonalEdgeStyle;rounded=0;orthogonalLoop=1;jettySize=auto;html=1;entryX=1;entryY=0.5;entryDx=0;entryDy=0;" edge="1" parent="1" source="4vnQMyWu1_nB3eLrfGSI-2" target="4vnQMyWu1_nB3eLrfGSI-27">
          <mxGeometry relative="1" as="geometry" />
        </mxCell>
        <mxCell id="4vnQMyWu1_nB3eLrfGSI-2" value="API" style="whiteSpace=wrap;html=1;rounded=0;" vertex="1" parent="1">
          <mxGeometry x="190" y="260" width="120" height="60" as="geometry" />
        </mxCell>
        <mxCell id="4vnQMyWu1_nB3eLrfGSI-20" value="" style="edgeStyle=orthogonalEdgeStyle;rounded=0;orthogonalLoop=1;jettySize=auto;html=1;" edge="1" parent="1" source="4vnQMyWu1_nB3eLrfGSI-4" target="4vnQMyWu1_nB3eLrfGSI-19">
          <mxGeometry relative="1" as="geometry" />
        </mxCell>
        <mxCell id="4vnQMyWu1_nB3eLrfGSI-4" value="Study&lt;br&gt;Data" style="whiteSpace=wrap;html=1;rounded=0;" vertex="1" parent="1">
          <mxGeometry x="190" y="400" width="120" height="60" as="geometry" />
        </mxCell>
        <mxCell id="4vnQMyWu1_nB3eLrfGSI-6" value="SSU&lt;br&gt;Abundance" style="whiteSpace=wrap;html=1;rounded=0;" vertex="1" parent="1">
          <mxGeometry x="-30" y="560" width="120" height="60" as="geometry" />
        </mxCell>
        <mxCell id="4vnQMyWu1_nB3eLrfGSI-8" value="ITS&lt;br&gt;Abundance" style="whiteSpace=wrap;html=1;rounded=0;" vertex="1" parent="1">
          <mxGeometry x="-30" y="650" width="120" height="60" as="geometry" />
        </mxCell>
        <mxCell id="4vnQMyWu1_nB3eLrfGSI-10" value="LSU&lt;br&gt;Abundance" style="whiteSpace=wrap;html=1;rounded=0;" vertex="1" parent="1">
          <mxGeometry x="-30" y="470" width="120" height="60" as="geometry" />
        </mxCell>
        <mxCell id="4vnQMyWu1_nB3eLrfGSI-41" style="edgeStyle=orthogonalEdgeStyle;rounded=0;orthogonalLoop=1;jettySize=auto;html=1;entryX=0.5;entryY=0;entryDx=0;entryDy=0;" edge="1" parent="1" source="4vnQMyWu1_nB3eLrfGSI-12" target="4vnQMyWu1_nB3eLrfGSI-38">
          <mxGeometry relative="1" as="geometry" />
        </mxCell>
        <mxCell id="4vnQMyWu1_nB3eLrfGSI-42" style="edgeStyle=orthogonalEdgeStyle;rounded=0;orthogonalLoop=1;jettySize=auto;html=1;entryX=0.5;entryY=0;entryDx=0;entryDy=0;" edge="1" parent="1" source="4vnQMyWu1_nB3eLrfGSI-12" target="4vnQMyWu1_nB3eLrfGSI-37">
          <mxGeometry relative="1" as="geometry" />
        </mxCell>
        <mxCell id="4vnQMyWu1_nB3eLrfGSI-12" value="Study&amp;nbsp;&lt;br&gt;MetaData" style="whiteSpace=wrap;html=1;rounded=0;" vertex="1" parent="1">
          <mxGeometry x="360" y="400" width="120" height="60" as="geometry" />
        </mxCell>
        <mxCell id="4vnQMyWu1_nB3eLrfGSI-16" value="" style="edgeStyle=orthogonalEdgeStyle;rounded=0;orthogonalLoop=1;jettySize=auto;html=1;" edge="1" parent="1" source="4vnQMyWu1_nB3eLrfGSI-14" target="4vnQMyWu1_nB3eLrfGSI-15">
          <mxGeometry relative="1" as="geometry" />
        </mxCell>
        <mxCell id="4vnQMyWu1_nB3eLrfGSI-32" style="edgeStyle=orthogonalEdgeStyle;rounded=0;orthogonalLoop=1;jettySize=auto;html=1;entryX=0.5;entryY=0;entryDx=0;entryDy=0;" edge="1" parent="1" source="4vnQMyWu1_nB3eLrfGSI-14" target="4vnQMyWu1_nB3eLrfGSI-28">
          <mxGeometry relative="1" as="geometry">
            <Array as="points">
              <mxPoint x="590" y="100" />
              <mxPoint x="-30" y="100" />
            </Array>
          </mxGeometry>
        </mxCell>
        <mxCell id="4vnQMyWu1_nB3eLrfGSI-14" value="ENA" style="rounded=0;whiteSpace=wrap;html=1;" vertex="1" parent="1">
          <mxGeometry x="530" y="120" width="120" height="60" as="geometry" />
        </mxCell>
        <mxCell id="4vnQMyWu1_nB3eLrfGSI-17" style="edgeStyle=orthogonalEdgeStyle;rounded=0;orthogonalLoop=1;jettySize=auto;html=1;entryX=0.75;entryY=0;entryDx=0;entryDy=0;" edge="1" parent="1" source="4vnQMyWu1_nB3eLrfGSI-15" target="4vnQMyWu1_nB3eLrfGSI-12">
          <mxGeometry relative="1" as="geometry" />
        </mxCell>
        <mxCell id="4vnQMyWu1_nB3eLrfGSI-15" value="API" style="whiteSpace=wrap;html=1;rounded=0;" vertex="1" parent="1">
          <mxGeometry x="530" y="220" width="120" height="60" as="geometry" />
        </mxCell>
        <mxCell id="4vnQMyWu1_nB3eLrfGSI-26" value="" style="edgeStyle=orthogonalEdgeStyle;rounded=0;orthogonalLoop=1;jettySize=auto;html=1;" edge="1" parent="1" source="4vnQMyWu1_nB3eLrfGSI-19" target="4vnQMyWu1_nB3eLrfGSI-25">
          <mxGeometry relative="1" as="geometry" />
        </mxCell>
        <mxCell id="4vnQMyWu1_nB3eLrfGSI-19" value="Outer Join&lt;br&gt;(get same idx)" style="whiteSpace=wrap;html=1;rounded=0;" vertex="1" parent="1">
          <mxGeometry x="190" y="510" width="120" height="60" as="geometry" />
        </mxCell>
        <mxCell id="4vnQMyWu1_nB3eLrfGSI-24" value="Analysis" style="text;html=1;strokeColor=none;fillColor=none;align=center;verticalAlign=middle;whiteSpace=wrap;rounded=0;" vertex="1" parent="1">
          <mxGeometry y="420" width="60" height="30" as="geometry" />
        </mxCell>
        <mxCell id="4vnQMyWu1_nB3eLrfGSI-39" style="edgeStyle=orthogonalEdgeStyle;rounded=0;orthogonalLoop=1;jettySize=auto;html=1;" edge="1" parent="1" source="4vnQMyWu1_nB3eLrfGSI-25" target="4vnQMyWu1_nB3eLrfGSI-38">
          <mxGeometry relative="1" as="geometry" />
        </mxCell>
        <mxCell id="4vnQMyWu1_nB3eLrfGSI-40" style="edgeStyle=orthogonalEdgeStyle;rounded=0;orthogonalLoop=1;jettySize=auto;html=1;entryX=0.5;entryY=1;entryDx=0;entryDy=0;" edge="1" parent="1" source="4vnQMyWu1_nB3eLrfGSI-25" target="4vnQMyWu1_nB3eLrfGSI-37">
          <mxGeometry relative="1" as="geometry">
            <Array as="points">
              <mxPoint x="250" y="690" />
              <mxPoint x="620" y="690" />
            </Array>
          </mxGeometry>
        </mxCell>
        <mxCell id="4vnQMyWu1_nB3eLrfGSI-25" value="Groupby&lt;br&gt;(get Abundance at different taxa rank)" style="whiteSpace=wrap;html=1;rounded=0;" vertex="1" parent="1">
          <mxGeometry x="190" y="610" width="120" height="60" as="geometry" />
        </mxCell>
        <mxCell id="4vnQMyWu1_nB3eLrfGSI-28" value="Raw reads" style="rounded=0;whiteSpace=wrap;html=1;" vertex="1" parent="1">
          <mxGeometry x="-90" y="230" width="120" height="60" as="geometry" />
        </mxCell>
        <mxCell id="4vnQMyWu1_nB3eLrfGSI-31" value="" style="edgeStyle=orthogonalEdgeStyle;rounded=0;orthogonalLoop=1;jettySize=auto;html=1;entryX=1;entryY=0.5;entryDx=0;entryDy=0;" edge="1" parent="1" source="4vnQMyWu1_nB3eLrfGSI-2" target="4vnQMyWu1_nB3eLrfGSI-27">
          <mxGeometry relative="1" as="geometry">
            <mxPoint x="190" y="290" as="sourcePoint" />
            <mxPoint x="40" y="260" as="targetPoint" />
          </mxGeometry>
        </mxCell>
        <mxCell id="4vnQMyWu1_nB3eLrfGSI-27" value="Trimmed reads" style="rounded=0;whiteSpace=wrap;html=1;" vertex="1" parent="1">
          <mxGeometry x="30" y="230" width="120" height="60" as="geometry" />
        </mxCell>
        <mxCell id="4vnQMyWu1_nB3eLrfGSI-33" value="" style="shape=flexArrow;endArrow=classic;startArrow=classic;html=1;rounded=0;" edge="1" parent="1">
          <mxGeometry width="100" height="100" relative="1" as="geometry">
            <mxPoint x="40" y="390" as="sourcePoint" />
            <mxPoint x="40" y="300" as="targetPoint" />
          </mxGeometry>
        </mxCell>
        <mxCell id="4vnQMyWu1_nB3eLrfGSI-34" value="" style="shape=flexArrow;endArrow=classic;html=1;rounded=0;" edge="1" parent="1">
          <mxGeometry width="50" height="50" relative="1" as="geometry">
            <mxPoint x="180" y="434.5" as="sourcePoint" />
            <mxPoint x="130" y="434.5" as="targetPoint" />
          </mxGeometry>
        </mxCell>
        <mxCell id="4vnQMyWu1_nB3eLrfGSI-35" value="Benchmark" style="text;html=1;strokeColor=none;fillColor=none;align=center;verticalAlign=middle;whiteSpace=wrap;rounded=0;" vertex="1" parent="1">
          <mxGeometry x="60" y="330" width="60" height="30" as="geometry" />
        </mxCell>
        <mxCell id="4vnQMyWu1_nB3eLrfGSI-37" value="ML" style="rounded=0;whiteSpace=wrap;html=1;" vertex="1" parent="1">
          <mxGeometry x="560" y="610" width="120" height="60" as="geometry" />
        </mxCell>
        <mxCell id="4vnQMyWu1_nB3eLrfGSI-38" value="DESeq2" style="rounded=0;whiteSpace=wrap;html=1;" vertex="1" parent="1">
          <mxGeometry x="400" y="610" width="120" height="60" as="geometry" />
        </mxCell>
      </root>
    </mxGraphModel>
  </diagram>
</mxfile>
